<svg xmlns="http://www.w3.org/2000/svg" viewBox="0 0 501 116" role="img" aria-label="Fx2D"><title>Fx2D</title><g transform="translate(-7.09 -25.33) scale(1.2579)"><rect x="12.00" y="78.00" width="96" height="28" rx="6" fill="#0B8FA7" transform="rotate(0 60 92)" /><rect x="19.00" y="31.28" width="42" height="42" rx="6" fill="#4DDFDB" transform="rotate(-15 40 52.280357700776634)" /><circle cx="86" cy="64" r="14" fill="#FFB547"/></g><g fill="none" transform="translate(152.75 8)"><path transform="translate(0 0)" d="M12 88V12H60M12 50H50" stroke="#E8F5F8" stroke-width="24" stroke-linecap="round" stroke-linejoin="round" fill="none"/><path transform="translate(80 0)" d="M12 46L50 88M50 46L12 88" stroke="#E8F5F8" stroke-width="24" stroke-linecap="round" stroke-linejoin="round" fill="none"/><path transform="translate(158 0)" d="M13 34C13 20 25 12 39 12C53 12 64 21 64 34C64 46 57 53 46 62L13 88H66" stroke="#4DDFDB" stroke-width="24" stroke-linecap="round" stroke-linejoin="round" fill="none"/><path transform="translate(250 0)" d="M12 12V88H34C62 88 78 72 78 50C78 28 62 12 34 12Z" stroke="#4DDFDB" stroke-width="24" stroke-linecap="round" stroke-linejoin="round" fill="none"/></g></svg>
